# xmcd
# 
# Track frame offsets:
#     150
#     22507
#     44015
#     62537
#     81857
#     100185
#     116025
#     131047
#     151772
#     172620
#     192017
#     213715
# 
# Disc length: 3104
# 
# Revision: 4
# Processed by: cddbd v1.5.2PL0 Copyright (c) Steve Scherf et al.
# Submitted via: fre:ac v1.0.17
# 
DISCID=920c1e0c
DTITLE=吉井和哉 - 39108
DYEAR=2006
DGENRE=Rock
TTITLE0=人それぞれのマイウェイ
TTITLE1=LIVINGTIME
TTITLE2=LONELY
TTITLE3=黄金バッド
TTITLE4=ポジネガマン
TTITLE5=HOLD ME TIGHT
TTITLE6=I WANT YOU I NEED YOU
TTITLE7=WEEKENDER
TTITLE8=ALL BY LOVE
TTITLE9=BEAUTIFUL
TTITLE10=恋の花
TTITLE11=BELIEVE
EXTD=
EXTT0=
EXTT1=
EXTT2=
EXTT3=
EXTT4=
EXTT5=
EXTT6=
EXTT7=
EXTT8=
EXTT9=
EXTT10=
EXTT11=
PLAYORDER=
